<svg xmlns="http://www.w3.org/2000/svg" width="86.094" height="39.75" viewBox="0 0 86.094 39.75">
  <metadata><?xpacket begin="﻿" id="W5M0MpCehiHzreSzNTczkc9d"?>
<x:xmpmeta xmlns:x="adobe:ns:meta/" x:xmptk="Adobe XMP Core 5.6-c138 79.159824, 2016/09/14-01:09:01        ">
   <rdf:RDF xmlns:rdf="http://www.w3.org/1999/02/22-rdf-syntax-ns#">
      <rdf:Description rdf:about=""/>
   </rdf:RDF>
</x:xmpmeta>
                                                                                                    
                                                                                                    
                                                                                                    
                                                                                                    
                                                                                                    
                                                                                                    
                                                                                                    
                                                                                                    
                                                                                                    
                                                                                                    
                                                                                                    
                                                                                                    
                                                                                                    
                                                                                                    
                                                                                                    
                                                                                                    
                                                                                                    
                                                                                                    
                                                                                                    
                                                                                                    
                           
<?xpacket end="w"?></metadata>
<defs>
    <style>
      .cls-1 {
        fill: #333;
        fill-rule: evenodd;
      }
    </style>
  </defs>
  <path id="Logo" class="cls-1" d="M194.816,37.84h-9.082V20.189h-5.478V42h14.56V37.84Zm20.553-15.066a11.377,11.377,0,0,0-15.5.015q-2.812,3.054-2.813,8.313a11.787,11.787,0,0,0,2.813,8.284,11.367,11.367,0,0,0,15.5.037Q218.2,36.39,218.2,31.1T215.369,22.774ZM212.161,34.4a7.173,7.173,0,0,1-1.084,2.219,4.091,4.091,0,0,1-1.567,1.3,4.446,4.446,0,0,1-1.875.417,4.585,4.585,0,0,1-1.846-.388,4.094,4.094,0,0,1-1.6-1.3,6.777,6.777,0,0,1-1.084-2.219,11.886,11.886,0,0,1-.4-3.333,11.887,11.887,0,0,1,.417-3.355,6.673,6.673,0,0,1,1.091-2.256,4.4,4.4,0,0,1,1.582-1.282,4.7,4.7,0,0,1,3.67.029,4.15,4.15,0,0,1,1.589,1.282,6.852,6.852,0,0,1,1.077,2.249,11.9,11.9,0,0,1,.4,3.318A11.832,11.832,0,0,1,212.161,34.4ZM241,30.018h-9.536V34.1H235.7v4.277q-0.292.03-.688,0.044c-0.264.01-.493,0.015-0.689,0.015a7.317,7.317,0,0,1-5.244-1.816q-1.918-1.816-1.919-5.64a8.9,8.9,0,0,1,.506-3.135,6.26,6.26,0,0,1,1.369-2.227,5.82,5.82,0,0,1,2.066-1.348,7.166,7.166,0,0,1,2.563-.44,7.588,7.588,0,0,1,2.278.337,9.609,9.609,0,0,1,1.9.806,12.476,12.476,0,0,1,1.443.959q0.739,0.564,1.135.872h0.5V21.7a24.034,24.034,0,0,0-3.545-1.414,15.724,15.724,0,0,0-4.453-.52,11.218,11.218,0,0,0-8.357,3.091,11.183,11.183,0,0,0-3.054,8.218q0,5.449,3.054,8.416a11.262,11.262,0,0,0,8.2,2.966,19.1,19.1,0,0,0,4.519-.557A26.966,26.966,0,0,0,241,40.755V30.018Zm22.472-7.244a11.377,11.377,0,0,0-15.5.015q-2.812,3.054-2.813,8.313a11.787,11.787,0,0,0,2.813,8.284,11.367,11.367,0,0,0,15.5.037Q266.3,36.39,266.3,31.1T263.472,22.774ZM260.264,34.4a7.173,7.173,0,0,1-1.084,2.219,4.083,4.083,0,0,1-1.567,1.3,4.446,4.446,0,0,1-1.875.417,4.585,4.585,0,0,1-1.846-.388,4.094,4.094,0,0,1-1.6-1.3,6.777,6.777,0,0,1-1.084-2.219,11.886,11.886,0,0,1-.4-3.333,11.887,11.887,0,0,1,.417-3.355,6.655,6.655,0,0,1,1.092-2.256,4.392,4.392,0,0,1,1.582-1.282,4.693,4.693,0,0,1,3.669.029,4.15,4.15,0,0,1,1.589,1.282,6.852,6.852,0,0,1,1.077,2.249,11.863,11.863,0,0,1,.4,3.318A11.832,11.832,0,0,1,260.264,34.4ZM189.529,51.069L188.166,57.4l-1.992-6.335h-1.135L183.1,57.4l-1.443-6.335H180.22l2.094,8.181h1.267l1.985-6.306,2,6.306h1.274l2.073-8.181h-1.384Zm3.78,0h-1.377V59.25h1.377V51.069Zm0.095-2.8h-1.568V49.7H193.4V48.271Zm3.068-.417H195.1v11.4h1.377v-11.4Zm3.164,0h-1.377v11.4h1.377v-11.4Zm11.55,9.639a2.006,2.006,0,0,1-1.655.747,3.464,3.464,0,0,1-.886-0.106,5.04,5.04,0,0,1-.923-0.363V53.083a4.4,4.4,0,0,1,1.044-.666,2.714,2.714,0,0,1,1.139-.264,1.54,1.54,0,0,1,1.435.758,4.446,4.446,0,0,1,.447,2.223A3.748,3.748,0,0,1,211.186,57.492Zm1.223-5.541a2.545,2.545,0,0,0-2.182-1.11,3.005,3.005,0,0,0-1.377.308,5.173,5.173,0,0,0-1.128.776V47.854h-1.377v11.4h1.289l0.088-.381a5,5,0,0,0,.934.443,3.471,3.471,0,0,0,1.139.165,3,3,0,0,0,2.439-1.223,5.035,5.035,0,0,0,.974-3.23A5.175,5.175,0,0,0,212.409,51.951Zm6.6,7.43q0.326-.059.729-0.169a6.715,6.715,0,0,0,.645-0.223l0.6-.238v-1.5h-0.08a3.841,3.841,0,0,1-.425.3,5.651,5.651,0,0,1-.63.326,4.207,4.207,0,0,1-.787.264,3.879,3.879,0,0,1-.89.1,2.608,2.608,0,0,1-1.985-.754,3.045,3.045,0,0,1-.718-2.183h5.669V54.555a5.121,5.121,0,0,0-.234-1.659,3.173,3.173,0,0,0-.674-1.146,2.682,2.682,0,0,0-1.026-.688,3.82,3.82,0,0,0-1.347-.22,3.488,3.488,0,0,0-2.74,1.183,4.628,4.628,0,0,0-1.047,3.182,4.287,4.287,0,0,0,1.08,3.131,4.06,4.06,0,0,0,3.036,1.1A4.793,4.793,0,0,0,219.012,59.382Zm-3.541-5.134a3.079,3.079,0,0,1,.2-0.912,2.288,2.288,0,0,1,.469-0.714,2.23,2.23,0,0,1,.7-0.48,2.758,2.758,0,0,1,1.868,0,1.545,1.545,0,0,1,.619.469,1.986,1.986,0,0,1,.337.681,3.841,3.841,0,0,1,.132.96h-4.329Zm18.179-.308a3.446,3.446,0,0,0-.681-2.3,2.357,2.357,0,0,0-1.89-.795,2.85,2.85,0,0,0-1.267.293,5.4,5.4,0,0,0-1.216.842V47.854h-1.377v11.4H228.6V53.142a5.461,5.461,0,0,1,1.066-.714,2.344,2.344,0,0,1,1.058-.275,1.854,1.854,0,0,1,.82.15,1.073,1.073,0,0,1,.469.458,2.232,2.232,0,0,1,.209.78,9.554,9.554,0,0,1,.055,1.051V59.25h1.377V53.94Zm6.173,5.442q0.325-.059.729-0.169a6.612,6.612,0,0,0,.644-0.223l0.6-.238v-1.5h-0.081a3.819,3.819,0,0,1-.424.3,5.651,5.651,0,0,1-.63.326,4.194,4.194,0,0,1-.788.264,3.866,3.866,0,0,1-.89.1A2.607,2.607,0,0,1,237,57.485a3.045,3.045,0,0,1-.718-2.183h5.669V54.555a5.092,5.092,0,0,0-.235-1.659,3.159,3.159,0,0,0-.674-1.146,2.671,2.671,0,0,0-1.025-.688,3.826,3.826,0,0,0-1.348-.22,3.486,3.486,0,0,0-2.739,1.183,4.628,4.628,0,0,0-1.047,3.182,4.287,4.287,0,0,0,1.08,3.131A4.057,4.057,0,0,0,239,59.44,4.793,4.793,0,0,0,239.823,59.382Zm-3.541-5.134a3.048,3.048,0,0,1,.2-0.912,2.288,2.288,0,0,1,.469-0.714,2.219,2.219,0,0,1,.7-0.48,2.758,2.758,0,0,1,1.868,0,1.552,1.552,0,0,1,.619.469,2,2,0,0,1,.337.681,3.8,3.8,0,0,1,.131.96h-4.328Zm11.348-3.135c-0.088-.015-0.167-0.026-0.238-0.033s-0.177-.011-0.318-0.011a2.463,2.463,0,0,0-1.088.275,6.284,6.284,0,0,0-1.315.941V51.069h-1.377V59.25h1.377V53.442a3.554,3.554,0,0,1,1.04-.718,2.728,2.728,0,0,1,1.106-.242q0.242,0,.414.011a1.542,1.542,0,0,1,.326.055h0.073V51.113Zm5.33,8.269q0.325-.059.729-0.169a6.622,6.622,0,0,0,.645-0.223l0.6-.238v-1.5h-0.08a3.841,3.841,0,0,1-.425.3,5.651,5.651,0,0,1-.63.326,4.183,4.183,0,0,1-.787.264,3.879,3.879,0,0,1-.89.1,2.608,2.608,0,0,1-1.985-.754,3.045,3.045,0,0,1-.718-2.183h5.669V54.555a5.121,5.121,0,0,0-.234-1.659,3.173,3.173,0,0,0-.674-1.146,2.682,2.682,0,0,0-1.026-.688,3.816,3.816,0,0,0-1.347-.22,3.488,3.488,0,0,0-2.74,1.183,4.628,4.628,0,0,0-1.047,3.182,4.287,4.287,0,0,0,1.08,3.131,4.06,4.06,0,0,0,3.036,1.1A4.793,4.793,0,0,0,252.96,59.382Zm-3.541-5.134a3.079,3.079,0,0,1,.2-0.912,2.288,2.288,0,0,1,.469-0.714,2.23,2.23,0,0,1,.7-0.48,2.758,2.758,0,0,1,1.868,0,1.545,1.545,0,0,1,.619.469,1.986,1.986,0,0,1,.337.681,3.841,3.841,0,0,1,.132.96h-4.329Z" transform="translate(-180.219 -19.719)"/>
</svg>
